PathFileType	4	(X/Y/Z)	C:/Users/opensim2020/Desktop/walking_exp_matlab/subject06_walking12_straigt_02.trc																																																																																																																																														
DataRate	CameraRate	NumFrames	NumMarkers	Units	OrigDataRate	OrigDataStartFrame	OrigNumFrames																																																																																																																																										
100	100	4	48	mm	100	1547	215																																																																																																																																										
Frame#	Time	LFHD			RFHD			LBHD			RBHD			C7			T10			CLAV			STRN			RBAK			LSHO			LUPA			LELB			LFRM			LWRA			LWRB			LFIN			RSHO			RUPA			RELB			RFRM			RWRA			RWRB			RFIN			LASI			RASI			LPSI			RPSI			LTHI			LKNE			LTIB			LANK			LHEE			LTOE			RTHI			RKNE			RTIB			RANK			RHEE			RTOE			*39			*40			*41			*42			*43			*44			*45			*46			*47		
		X1	Y1	Z1	X2	Y2	Z2	X3	Y3	Z3	X4	Y4	Z4	X5	Y5	Z5	X6	Y6	Z6	X7	Y7	Z7	X8	Y8	Z8	X9	Y9	Z9	X10	Y10	Z10	X11	Y11	Z11	X12	Y12	Z12	X13	Y13	Z13	X14	Y14	Z14	X15	Y15	Z15	X16	Y16	Z16	X17	Y17	Z17	X18	Y18	Z18	X19	Y19	Z19	X20	Y20	Z20	X21	Y21	Z21	X22	Y22	Z22	X23	Y23	Z23	X24	Y24	Z24	X25	Y25	Z25	X26	Y26	Z26	X27	Y27	Z27	X28	Y28	Z28	X29	Y29	Z29	X30	Y30	Z30	X31	Y31	Z31	X32	Y32	Z32	X33	Y33	Z33	X34	Y34	Z34	X35	Y35	Z35	X36	Y36	Z36	X37	Y37	Z37	X38	Y38	Z38	X39	Y39	Z39	X40	Y40	Z40	X41	Y41	Z41	X42	Y42	Z42	X43	Y43	Z43	X44	Y44	Z44	X45	Y45	Z45	X46	Y46	Z46	X47	Y47	Z47	X48	Y48	Z48
																																																																																																																																																	
108	1.07	-1472.59937	1674.83618	120.60168	-1340.93164	1662.4801	124.15296	-1476.01538	1626.16028	256.66162	-1346.74878	1619.70837	258.82272	-1417.03992	1461.74512	261.52481	-1402.37756	1132.66125	291.22769	-1416.9928	1386.69922	150.4201	-1421.91418	1211.22437	106.2618	-1333.33545	1289.56604	328.55597	-1578.50745	1414.51172	212.00446	-1641.45898	1209.11401	224.47232	-1646.59961	1096.65125	234.05302	-1668.1637	947.44696	214.08751	-1630.98633	833.22369	148.04611	-1660.62122	827.92633	213.36028	-1665.56409	747.28821	171.77745	-1255.6145	1419.51917	195.14661	-1167.22876	1218.71289	220.83647	-1155.37805	1098.37207	203.61661	-1138.89038	983.591	168.75124	-1170.05725	860.56403	80.37093	-1132.74084	850.35736	135.49635	-1129.76733	783.22833	84.66597	-1509.48535	968.51855	119.89943	-1291.43701	977.87268	118.46308	-1483.06702	996.51764	278.02451	-1315.18762	1006.18402	269.13806	-1568.42346	657.8161	129.7291	-1547.98315	503.77271	77.52631	-1541.55042	312.64014	230.98897	-1505.99597	173.68063	333.47574	-1457.63269	180.3259	373.35977	-1512.41821	70.03188	234.8909	-1239.21423	642.50299	180.49872	-1265.65271	517.12646	178.95496	-1274.26184	256.07446	242.91542	-1326.10718	72.86983	268.65369	-1371.10754	49.65783	309.29688	-1325.56689	36.59947	116.31284	-1414.84082	1717.06787	220.399	NaN	NaN	NaN	NaN	NaN	NaN	NaN	NaN	NaN	NaN	NaN	NaN	NaN	NaN	NaN	NaN	NaN	NaN	NaN	NaN	NaN	NaN	NaN	NaN
109	1.08	-1472.97327	1674.203	109.59093	-1341.28931	1662.05127	112.862	-1475.96924	1625.7218	245.68083	-1346.69177	1619.40161	247.64777	-1416.8042	1461.44128	250.67989	-1401.74402	1132.43066	280.8237	-1416.87439	1386.24072	139.58012	-1421.52527	1210.71765	95.69324	-1332.59839	1289.36536	317.79242	-1578.28503	1413.9707	201.48764	-1641.2605	1208.85974	217.15865	-1646.4021	1096.72375	228.86238	-1667.74316	946.84857	212.8839	-1630.33374	830.69226	151.01299	-1661.76526	828.14539	216.49605	-1665.10425	745.40161	177.59772	-1255.50574	1419.38745	184.11386	-1166.97363	1218.49976	207.84787	-1154.97571	1098.4115	188.88757	-1138.40869	984.60614	151.2695	-1169.18054	864.40588	59.23727	-1132.48315	852.42224	114.36697	-1129.11194	787.02563	61.37253	-1508.64844	968.59845	109.09695	-1290.67212	977.21545	108.46778	-1482.70178	996.25659	267.50943	-1314.81616	1005.61719	259.00284	-1569.70642	660.21283	113.28806	-1547.94409	505.95712	60.80979	-1540.92334	308.43982	207.2688	-1504.91785	164.97983	303.53033	-1456.0658	169.59219	343.33319	-1512.79443	66.71733	200.01747	-1239.52112	641.64252	173.00513	-1265.59412	516.21594	173.41078	-1274.70984	255.91029	240.39946	-1326.47473	73.01541	268.21582	-1371.42871	49.9731	309.06934	-1325.46069	36.53468	116.21733	-1415.0022	1716.63159	209.20418	NaN	NaN	NaN	NaN	NaN	NaN	NaN	NaN	NaN	NaN	NaN	NaN	NaN	NaN	NaN	NaN	NaN	NaN	NaN	NaN	NaN	NaN	NaN	NaN
110	1.09	-1473.42004	1673.49255	98.46732	-1341.65625	1661.49341	101.57206	-1476.02307	1625.15247	234.7298	-1346.70508	1618.99805	236.43604	-1416.56494	1460.93323	239.79964	-1400.97754	1131.99561	270.27753	-1416.84424	1385.62939	128.78519	-1421.1814	1210.0896	85.19632	-1331.95532	1289.02588	306.97964	-1578.14063	1413.3092	190.82361	-1641.04773	1208.63586	210.00079	-1646.34375	1096.87524	223.83632	-1668.00696	946.95264	211.81807	-1629.71863	828.58856	153.71419	-1661.79944	828.0575	218.8009	-1664.63855	743.99664	182.92664	-1255.39966	1419.13831	173.13268	-1166.82568	1218.19067	194.94476	-1154.68909	1098.44043	174.30467	-1138.06445	985.71381	133.92	-1168.47693	868.43451	38.28389	-1132.20667	854.65381	93.35308	-1128.43994	791.00586	38.43754	-1507.92346	968.51672	98.42867	-1290.09326	976.51697	98.33987	-1482.21704	995.82977	257.03064	-1314.35962	1004.88257	248.80714	-1570.21399	661.26428	99.25708	-1547.81201	507.79459	44.73866	-1540.32764	303.87402	183.49942	-1503.76379	156.16161	272.9104	-1454.67053	158.59631	312.48495	-1512.98669	63.63705	164.13881	-1239.86841	640.74207	165.35651	-1265.61072	515.24536	167.52818	-1275.06677	255.75079	237.74515	-1326.77368	73.18494	267.76819	-1371.83838	50.13041	308.5921	-1325.34363	36.51793	116.43822	-1415.2655	1716.09692	197.97833	NaN	NaN	NaN	NaN	NaN	NaN	NaN	NaN	NaN	NaN	NaN	NaN	NaN	NaN	NaN	NaN	NaN	NaN	NaN	NaN	NaN	NaN	NaN	NaN
111	1.1	-1473.80322	1672.63965	87.3922	-1342.02515	1660.83789	90.28008	-1476.09106	1624.46973	223.7298	-1346.79102	1618.46277	225.20309	-1416.52502	1460.3468	228.89285	-1400.26318	1131.45703	259.73181	-1416.81641	1384.92834	117.997	-1420.87219	1209.36816	74.57713	-1331.31689	1288.59265	296.21271	-1577.99915	1412.55029	180.30379	-1640.97571	1208.41077	202.84784	-1646.20325	1097.02222	219.11719	-1667.96179	946.89075	210.6152	-1629.11267	826.94031	156.1727	-1661.90259	828.013	220.42648	-1664.18835	743.02283	187.56906	-1255.34912	1418.75598	162.18008	-1166.61267	1217.80493	181.82907	-1154.50073	1098.42871	159.79907	-1137.70837	986.88995	116.68674	-1167.83105	872.59698	17.55798	-1132.3075	856.90326	72.46732	-1127.94031	795.2226	15.58409	-1507.40405	968.32874	87.77383	-1289.55981	975.59686	88.09921	-1481.77759	995.27051	246.52589	-1313.85376	1003.95923	238.46854	-1570.69348	662.13293	85.49552	-1547.86609	509.52438	29.11384	-1539.82959	299.15948	159.6922	-1502.81799	147.10229	241.40869	-1452.93665	147.24963	280.32938	-1513.56213	60.75488	128.10637	-1240.29407	639.78217	157.48283	-1265.8186	514.20422	161.21468	-1275.37061	255.51678	234.81487	-1326.99597	73.3651	267.24817	-1372.09607	50.49996	308.39996	-1325.30542	36.42648	116.1357	-1415.53455	1715.47803	186.74051	NaN	NaN	NaN	NaN	NaN	NaN	NaN	NaN	NaN	NaN	NaN	NaN	NaN	NaN	NaN	NaN	NaN	NaN	NaN	NaN	NaN	NaN	NaN	NaN
